<?xml version="1.0" encoding="UTF-8"?>
<svg id="Calque_1" data-name="Calque 1" xmlns="http://www.w3.org/2000/svg" viewBox="0 0 2040 2040">
  <defs>
    <style>
      .cls-1 {
        fill: #6bb5f1;
      }

      .cls-2 {
        fill: #3b86c8;
      }
    </style>
  </defs>
  <path class="cls-2" d="M961.11,1486.41c1.18.39,2.38.77,3.58,1.16.79.26,1.61.51,2.4.75-1.99-.63-3.98-1.26-5.97-1.91ZM1102.48,1503.07c-.55.04-1.1.1-1.65.14.55-.04,1.1-.08,1.65-.12,1.32-.12,2.64-.24,3.96-.39-1.32.14-2.64.26-3.96.37ZM1183.22,1486.29c-1,.35-1.99.67-2.99,1.02,1.67-.55,3.33-1.1,5-1.69-.67.22-1.34.45-2.01.67ZM1247.62,1457.13c-.26.16-.53.33-.79.49.71-.43,1.44-.83,2.15-1.28-.45.26-.91.53-1.36.79ZM1250.34,1455.55c.91-.53,1.83-1.08,2.72-1.65.71-.43,1.42-.85,2.13-1.3-1.61,1.02-3.23,1.99-4.86,2.95ZM1321.6,1399.73c-.41.45-.83.87-1.26,1.3.89-.89,1.77-1.79,2.66-2.7-.47.47-.93.93-1.4,1.4ZM1415.25,1225.11c-.24,1.2-.49,2.4-.75,3.58.41-1.77.77-3.56,1.14-5.36-.12.61-.26,1.2-.39,1.79ZM1417.04,1215.82c-.24,1.44-.51,2.89-.77,4.31.43-2.28.85-4.57,1.24-6.89-.14.87-.31,1.73-.47,2.58ZM1421.61,1179.41c-.02.32-.04.67-.06,1,.18-2.44.35-4.88.47-7.34-.12,2.11-.26,4.23-.41,6.34Z"/>
  <path class="cls-2" d="M1570.83,521.84c-37.92,0-67.03,9.02-90.75,21.78-20.81-63.4-56.18-120.96-104.36-169.14-81.11-81.11-188.99-125.8-303.71-125.8-103.38,0-203.27,37.27-281.28,104.91-58.97,51.12-102.57,117.02-126.69,190.07-23.75-12.8-52.91-21.82-90.87-21.82v78.98c32.77,0,53.09,9.75,72.48,25.01-2.09,17.33-3.19,34.89-3.19,52.38v279.98c-31.52,15.44-60.31,36.27-84.89,61.3-6.2-21.01-9.41-42.91-9.41-65.12h-79c0,48.79,11.5,96.58,33.38,139.65l-.59.98.59,1c-21.88,43.1-33.38,90.91-33.38,139.67h79c0-22.19,3.21-44.11,9.41-65.12,26.6,27.09,58.07,49.21,92.72,64.98,17.94,93.02,66.44,177.94,138.27,241.05,77.11,67.78,175.84,105.6,278.48,106.78,1.65.02,3.33.04,4.98.04,16.01,0,31.9-.89,47.61-2.6,22.88-2.5,45.37-6.83,67.28-12.86,17.21-4.75,34.06-10.57,50.47-17.41,17.43-7.23,34.38-15.69,50.76-25.24,15.54-9.08,30.54-19.16,44.95-30.24,14.89-11.46,29.14-23.96,42.67-37.47,81.11-81.11,125.78-188.99,125.78-303.71v-475.65c0-17.49-1.06-35.07-3.17-52.38,19.4-15.26,39.7-25.01,72.48-25.01v-78.98ZM842.47,413.25c63.66-55.19,145.18-85.58,229.55-85.58,93.63,0,181.65,36.45,247.85,102.67,46.29,46.29,78.09,103.16,93.04,165.85-26.5,24.42-48.05,41.49-91.5,41.49-46.84,0-68.21-19.85-97.84-47.36-32.84-30.5-73.7-68.48-151.58-68.48s-118.75,37.98-151.58,68.48c-29.58,27.51-50.98,47.36-97.82,47.36-43.44,0-64.98-17.07-91.48-41.47,16.97-70.63,55.82-134.78,111.35-182.95ZM596.26,1095.02c25.79-33.2,60.49-59.11,99.79-74.06,26.09-9.96,53.62-15.02,81.81-15.02,72.11,0,138.39,32.88,181.74,89.06-43.36,56.2-109.62,89.1-181.71,89.1-1.69,0-3.37-.02-5.04-.06-1.81-.04-3.58-.08-5.34-.18-23.47-1.04-46.39-5.59-68.33-13.61-40.62-14.79-76.42-41.11-102.9-75.22ZM1180.24,1487.3c1-.35,1.99-.67,2.99-1.02.67-.22,1.34-.45,2.01-.67-1.67.59-3.33,1.14-5,1.69ZM1422.54,1153.87c0,2.09-.02,4.19-.06,6.28v.47c-.04,2.03-.1,4.06-.18,6.08-.08,2.13-.16,4.27-.28,6.38-.12,2.46-.28,4.9-.47,7.34-.02.35-.04.67-.08.98-.12,1.52-.24,3.03-.39,4.53-.12,1.26-.24,2.5-.35,3.74-.57,5.53-1.26,11.03-2.09,16.48-.22,1.52-.45,3.03-.71,4.53-.02.08-.02.18-.04.26-.04.35-.1.69-.16,1.04-.08.43-.16.85-.22,1.28-.39,2.32-.81,4.61-1.24,6.89-.2,1.08-.43,2.13-.63,3.19-.37,1.81-.73,3.6-1.14,5.36-.47,2.21-.98,4.43-1.52,6.62-.24,1-.49,2.01-.73,3.03-.24,1.02-.49,2.03-.75,3.03-.37,1.4-.73,2.8-1.12,4.19-.37,1.4-.75,2.78-1.16,4.17-.35,1.24-.71,2.48-1.08,3.72-.28.98-.59,1.95-.89,2.93-.32,1.1-.67,2.19-1.02,3.29-.93,2.97-1.91,5.93-2.95,8.86-.41,1.22-.85,2.42-1.28,3.64-.55,1.54-1.12,3.09-1.71,4.61-.49,1.36-1.02,2.72-1.56,4.08-5.16,13.29-11.13,26.19-17.84,38.63-.55,1.04-1.1,2.05-1.67,3.05-.55,1.02-1.12,2.01-1.67,3.03-1.2,2.11-2.42,4.23-3.66,6.32-.83,1.4-1.67,2.8-2.52,4.19-1.04,1.71-2.11,3.43-3.21,5.14-1.06,1.69-2.15,3.35-3.23,5.02-1.6,2.42-3.23,4.82-4.9,7.21-.91,1.34-1.85,2.68-2.82,4-3.92,5.49-7.99,10.85-12.23,16.11-.75.91-1.48,1.83-2.26,2.74-4.55,5.57-9.31,10.97-14.22,16.26-.79.85-1.58,1.71-2.4,2.56-.14.16-.31.33-.49.51-.87.91-1.75,1.83-2.62,2.72-.89.91-1.77,1.81-2.66,2.7-1.58,1.61-3.21,3.19-4.84,4.77-.02-1.34-.02-2.72-.02-4.08,0-46.53,8.17-68.25,17.62-93.37,9.85-26.17,21.01-55.82,21.01-111.94,0-14.53-11.81-26.33-26.33-26.33s-26.33,11.81-26.33,26.33c0,46.55-8.17,68.25-17.64,93.39-9.83,26.15-20.99,55.82-20.99,111.92,0,16.97,1.02,31.52,2.72,44.28-3.41,2.28-6.85,4.47-10.34,6.6-1.61,1.02-3.23,1.99-4.86,2.95-.45.28-.91.55-1.36.79-.71.45-1.44.85-2.15,1.28-.57.33-1.14.65-1.71.95-1.56.89-3.11,1.79-4.69,2.64-.1.06-.22.12-.32.16-.57.3-1.14.61-1.71.91-.49.28-.98.55-1.48.81-.28.16-.57.31-.85.47-.77.41-1.54.81-2.36,1.24-1.1.57-2.19,1.14-3.29,1.71-4.41,2.26-8.88,4.41-13.41,6.46-1.04.49-2.09.98-3.15,1.42-.06.04-.14.06-.22.1-5.95-18.39-10.24-39.07-10.24-72.78,0-46.53,8.19-68.25,17.62-93.37,9.85-26.17,21.01-55.82,21.01-111.94,0-14.53-11.79-26.33-26.33-26.33s-26.33,11.81-26.33,26.33c0,46.55-8.17,68.25-17.6,93.39-9.86,26.15-21.03,55.82-21.03,111.92,0,20.77,1.52,37.9,3.96,52.59,2.42,14.69,5.73,26.9,9.33,37.83-.1.04-.2.06-.3.08-1.81.49-3.6.98-5.41,1.42-1.91.49-3.84.95-5.77,1.4-.47.12-.96.24-1.44.35-.43.1-.83.2-1.26.3-.77.16-1.54.35-2.32.51-1.04.24-2.09.47-3.15.67-.49.12-1,.2-1.5.3-.49.1-.98.2-1.48.3-.71.14-1.4.28-2.09.43-.69.14-1.38.26-2.07.41-1.06.2-2.13.41-3.21.59-1.91.35-3.82.67-5.75.98-1.44.24-2.89.47-4.33.67-4.49.67-9,1.26-13.55,1.75-1.3.14-2.6.28-3.92.41-1.32.14-2.64.26-3.96.39-.55.04-1.1.08-1.65.12.55-.04,1.1-.1,1.65-.14-.98-2.7-1.97-5.32-2.97-7.94-9.45-25.13-17.62-46.86-17.62-93.41s8.17-68.25,17.62-93.37c9.85-26.17,21.01-55.82,21.01-111.94,0-14.53-11.81-26.33-26.33-26.33s-26.33,11.81-26.33,26.33c0,46.55-8.17,68.25-17.62,93.39-9.86,26.15-21.01,55.82-21.01,111.92,0,48.99,8.51,77.82,17.21,101.74h-.06c-1.73-.14-3.45-.26-5.18-.43-1.63-.14-3.27-.31-4.9-.47-.28-.02-.55-.04-.81-.08-.85-.08-1.69-.18-2.54-.26-.33-.04-.67-.08-1-.12-1.18-.14-2.36-.26-3.52-.43-2.15-.26-4.31-.55-6.46-.87-.83-.1-1.67-.22-2.5-.37-.79-.1-1.6-.24-2.42-.37-1.04-.16-2.07-.33-3.11-.51-.87-.14-1.73-.28-2.58-.45-1.5-.26-2.99-.53-4.49-.81-2.99-.57-5.97-1.16-8.94-1.81-1.48-.33-2.97-.65-4.45-1-.63-.14-1.28-.28-1.91-.45-1.91-.45-3.82-.91-5.73-1.4-.73-.16-1.44-.37-2.17-.55-1.81-.47-3.62-.95-5.43-1.46-.28-.08-.57-.14-.85-.24-1.36-.39-2.72-.77-4.08-1.18-1.12-.33-2.23-.65-3.35-1-.95-.28-1.91-.59-2.87-.89-.79-.24-1.6-.49-2.4-.75-1.2-.39-2.4-.77-3.58-1.16-1.83-.61-3.68-1.24-5.51-1.87-1.58-.57-3.17-1.14-4.75-1.73-1.63-.59-3.27-1.22-4.9-1.85-4.08-1.56-8.13-3.21-12.15-4.94-1.69-.73-3.37-1.46-5.04-2.21-1.5-.67-3.01-1.36-4.51-2.05-.41-.18-.79-.37-1.18-.55-1.91-.89-3.82-1.81-5.71-2.74-.89-.45-1.79-.87-2.68-1.34-1.91-.93-3.8-1.91-5.69-2.93-3.09-1.61-6.16-3.27-9.2-5-1.18-.67-2.34-1.32-3.49-2.01-3.96-2.28-7.86-4.65-11.72-7.09-.93-.59-1.85-1.18-2.76-1.77-1.06-.69-2.11-1.38-3.17-2.07-6.06-4-11.99-8.19-17.8-12.6-1.26-.95-2.52-1.91-3.78-2.89-1.81-1.4-3.58-2.8-5.34-4.25-1.67-1.34-3.33-2.7-4.96-4.08-2.03-1.69-4.06-3.43-6.06-5.18-48.14-42.32-83.47-96.62-102.69-156.72.28.04.59.04.87.1,2.6.32,5.18.61,7.8.87.73.08,1.5.14,2.24.22,2.93.26,5.85.51,8.82.69.22.02.45.04.67.04,2.74.16,5.51.3,8.25.41.77.02,1.52.04,2.3.06,2.97.08,5.95.14,8.92.14,53.76,0,106.68-14.02,153.09-40.56,44.99-25.74,83.09-62.69,110.19-106.86l12.68-20.66-12.68-20.66c-27.11-44.15-65.2-81.09-110.19-106.82-46.41-26.54-99.34-40.58-153.11-40.58-2.36,0-4.73.04-7.09.1l-2.26.06c-1.61.06-3.23.08-4.84.18-.89.04-1.81.08-2.7.14-1.44.08-2.93.14-4.37.24-.93.06-1.89.16-2.82.22-1.4.1-2.82.2-4.23.32-.95.1-1.91.2-2.87.3-1.38.14-2.76.26-4.17.43-.93.1-1.87.24-2.82.35-1.38.18-2.76.35-4.15.53-.95.14-1.91.28-2.84.43-1.38.2-2.76.41-4.12.61-.95.16-1.91.33-2.84.49-1.36.22-2.72.47-4.1.73h-.16v-243.16c25.5,15.83,57.5,27.76,101.13,27.76,77.86,0,118.75-37.98,151.58-68.48,29.6-27.51,50.98-47.38,97.82-47.38s68.23,19.87,97.84,47.38c32.86,30.5,73.72,68.48,151.58,68.48,43.63,0,75.63-11.93,101.13-27.76v464.94Z"/>
  <path class="cls-1" d="M1183.22,1486.29c-1,.35-1.99.67-2.99,1.02,1.67-.55,3.33-1.1,5-1.69-.67.22-1.34.45-2.01.67ZM1321.42,716.68c-77.86,0-118.73-37.98-151.58-68.48-29.6-27.51-50.98-47.38-97.84-47.38s-68.21,19.87-97.82,47.38c-32.84,30.5-73.72,68.48-151.58,68.48-43.63,0-75.63-11.93-101.13-27.76v243.16h.16c1.38-.26,2.74-.51,4.1-.73.93-.16,1.89-.32,2.84-.49,1.36-.2,2.74-.41,4.12-.61.93-.14,1.89-.28,2.84-.43,1.38-.18,2.76-.35,4.15-.53.95-.1,1.89-.24,2.82-.35,1.4-.16,2.78-.28,4.17-.43.95-.1,1.91-.2,2.87-.3,1.4-.12,2.82-.22,4.23-.32.93-.06,1.89-.16,2.82-.22,1.44-.1,2.93-.16,4.37-.24.89-.06,1.81-.1,2.7-.14,1.61-.1,3.23-.12,4.84-.18l2.26-.06c2.36-.06,4.73-.1,7.09-.1,53.76,0,106.7,14.04,153.11,40.58,44.99,25.72,83.09,62.66,110.19,106.82l12.68,20.66-12.68,20.66c-27.11,44.17-65.2,81.11-110.19,106.86-46.41,26.54-99.32,40.56-153.09,40.56-2.97,0-5.95-.06-8.92-.14-.77-.02-1.52-.04-2.3-.06-2.74-.1-5.51-.24-8.25-.41-.22,0-.45-.02-.67-.04-2.97-.18-5.89-.43-8.82-.69-.73-.08-1.5-.14-2.24-.22-2.62-.26-5.2-.55-7.8-.87-.28-.06-.59-.06-.87-.1,19.22,60.1,54.56,114.4,102.69,156.72,1.99,1.75,4,3.47,6.06,5.18,1.65,1.38,3.29,2.74,4.96,4.08,1.77,1.44,3.54,2.84,5.34,4.25,1.26.98,2.52,1.93,3.78,2.89,5.81,4.41,11.74,8.59,17.8,12.6,1.97,1.3,3.94,2.58,5.93,3.84,3.86,2.44,7.76,4.82,11.72,7.09,1.16.69,2.32,1.34,3.49,2.01,3.05,1.73,6.12,3.39,9.2,5,1.89,1,3.78,1.97,5.69,2.93.89.47,1.79.89,2.68,1.34,1.89.93,3.8,1.85,5.71,2.74.39.18.77.37,1.18.55,1.5.69,3.01,1.38,4.51,2.05,1.67.75,3.35,1.48,5.04,2.21,4.02,1.73,8.07,3.37,12.15,4.94,1.63.63,3.27,1.26,4.9,1.85,1.58.59,3.17,1.16,4.75,1.73,1.83.63,3.68,1.26,5.51,1.87,1.18.39,2.38.77,3.58,1.16.79.26,1.61.51,2.4.75.96.3,1.91.61,2.87.89,1.12.35,2.24.67,3.35,1,1.36.41,2.72.79,4.08,1.18.28.1.57.16.85.24,1.81.51,3.62,1,5.43,1.46.73.18,1.44.39,2.17.55,1.91.49,3.82.95,5.73,1.4.63.16,1.28.3,1.91.45,1.48.35,2.97.67,4.45,1,2.97.65,5.95,1.24,8.94,1.81,1.5.28,2.99.55,4.49.81.85.16,1.71.3,2.58.45,1.04.18,2.07.35,3.11.51.81.12,1.63.26,2.42.37.83.14,1.67.26,2.5.37,2.15.33,4.31.61,6.46.87,1.16.16,2.34.28,3.52.43,1.18.14,2.36.26,3.54.39.26.04.53.06.81.08,1.63.16,3.27.33,4.9.47,1.73.16,3.45.28,5.18.43h.06c-8.7-23.92-17.21-52.75-17.21-101.74,0-56.1,11.16-85.77,21.01-111.92,9.45-25.13,17.62-46.84,17.62-93.39,0-14.53,11.81-26.33,26.33-26.33s26.33,11.81,26.33,26.33c0,56.12-11.16,85.77-21.01,111.94-9.45,25.11-17.62,46.84-17.62,93.37s8.17,68.27,17.62,93.41c1,2.62,1.99,5.24,2.97,7.94-.55.04-1.1.1-1.65.14.55-.04,1.1-.08,1.65-.12,1.32-.12,2.64-.24,3.96-.39,1.32-.12,2.62-.26,3.92-.41,4.55-.49,9.06-1.08,13.55-1.75,1.44-.2,2.89-.43,4.33-.67,1.93-.3,3.84-.63,5.75-.98,1.08-.18,2.15-.39,3.21-.59.69-.14,1.38-.26,2.07-.41.69-.14,1.38-.28,2.09-.43.51-.1,1-.2,1.48-.3.51-.1,1.02-.18,1.5-.3,1.06-.2,2.11-.43,3.15-.67,1.2-.26,2.4-.53,3.58-.81.49-.1.98-.22,1.44-.35,1.93-.45,3.86-.91,5.77-1.4,1.81-.45,3.6-.93,5.41-1.42.1-.02.2-.04.3-.08-3.6-10.93-6.91-23.14-9.33-37.83-2.44-14.69-3.96-31.82-3.96-52.59,0-56.1,11.18-85.77,21.03-111.92,9.43-25.13,17.6-46.84,17.6-93.39,0-14.53,11.81-26.33,26.33-26.33s26.33,11.81,26.33,26.33c0,56.12-11.16,85.77-21.01,111.94-9.43,25.11-17.62,46.84-17.62,93.37,0,33.71,4.29,54.39,10.24,72.78.08-.04.16-.06.22-.1,1.06-.47,2.11-.93,3.15-1.42,4.53-2.05,9-4.21,13.41-6.46,1.1-.57,2.19-1.14,3.29-1.71.81-.43,1.58-.83,2.36-1.24.28-.16.57-.3.85-.47.51-.26,1-.53,1.48-.81.57-.3,1.14-.61,1.71-.91.1-.04.22-.1.32-.16,1.58-.85,3.13-1.75,4.69-2.64.57-.3,1.14-.63,1.71-.95.71-.43,1.44-.83,2.15-1.28.45-.24.91-.51,1.36-.79.91-.53,1.83-1.08,2.72-1.65.71-.43,1.42-.85,2.13-1.3,3.5-2.13,6.93-4.33,10.34-6.6-1.71-12.76-2.72-27.31-2.72-44.28,0-56.1,11.16-85.77,20.99-111.92,9.47-25.13,17.64-46.84,17.64-93.39,0-14.53,11.79-26.33,26.33-26.33s26.33,11.81,26.33,26.33c0,56.12-11.16,85.77-21.01,111.94-9.45,25.11-17.62,46.84-17.62,93.37,0,1.36,0,2.74.02,4.08,1.63-1.58,3.25-3.17,4.84-4.77.89-.89,1.77-1.79,2.66-2.7.87-.89,1.75-1.81,2.62-2.72.18-.18.35-.35.49-.51.81-.85,1.6-1.71,2.4-2.56,4.92-5.28,9.67-10.69,14.22-16.26.77-.91,1.5-1.83,2.26-2.74,4.25-5.26,8.31-10.63,12.23-16.11.96-1.32,1.89-2.66,2.82-4,1.67-2.4,3.29-4.8,4.9-7.21,1.08-1.67,2.17-3.33,3.23-5.02,1.1-1.71,2.17-3.43,3.21-5.14.85-1.38,1.69-2.78,2.52-4.19,1.24-2.09,2.46-4.21,3.66-6.32.55-1.02,1.12-2.01,1.67-3.03.57-1,1.12-2.01,1.67-3.05,6.71-12.44,12.68-25.34,17.84-38.63.55-1.36,1.08-2.72,1.56-4.08.59-1.52,1.16-3.07,1.71-4.61.43-1.22.87-2.42,1.28-3.64,1.04-2.93,2.01-5.89,2.95-8.86.35-1.1.69-2.19,1.02-3.29.3-.98.61-1.95.89-2.93.37-1.24.73-2.48,1.08-3.72.41-1.38.79-2.76,1.16-4.17.39-1.38.75-2.78,1.12-4.19.26-1,.51-2.01.75-3.03.24-1.02.49-2.03.73-3.03.55-2.19,1.06-4.41,1.52-6.62.41-1.77.77-3.56,1.14-5.36.2-1.06.43-2.11.63-3.19.43-2.28.85-4.57,1.24-6.89.06-.43.14-.85.22-1.28.06-.35.12-.69.16-1.04.02-.08.02-.18.04-.26.12-.67.22-1.36.3-2.05.14-.83.28-1.65.41-2.48.83-5.45,1.52-10.95,2.09-16.48.1-1.24.22-2.48.35-3.74.14-1.5.26-3.01.39-4.53.04-.3.06-.63.08-.98.18-2.44.35-4.88.47-7.34.12-2.11.2-4.25.28-6.38.08-2.01.14-4.04.18-6.08v-.47c.04-2.09.06-4.19.06-6.28v-464.94c-25.5,15.83-57.5,27.76-101.13,27.76ZM1156.55,1036.44c-50.64,0-91.86-41.21-91.86-91.86s41.23-91.88,91.86-91.88,91.88,41.23,91.88,91.88-41.23,91.86-91.88,91.86Z"/>
  <path class="cls-2" d="M1156.55,852.7c-50.64,0-91.86,41.22-91.86,91.88s41.22,91.88,91.86,91.88,91.88-41.22,91.88-91.88-41.22-91.88-91.88-91.88ZM1156.55,975.01c-16.78,0-30.42-13.66-30.42-30.44s13.64-30.44,30.42-30.44,30.44,13.66,30.44,30.44-13.64,30.44-30.44,30.44Z"/>
</svg>